<svg width="24" height="24" viewBox="0 0 24 24" fill="none" xmlns="http://www.w3.org/2000/svg">
<path fill-rule="evenodd" clip-rule="evenodd" d="M12.0003 1.5C11.6025 1.5 11.221 1.65804 10.9397 1.93934C10.6584 2.22064 10.5003 2.60218 10.5003 3V3.15C8.80627 3.4958 7.28372 4.41627 6.19036 5.75565C5.09699 7.09502 4.49996 8.77102 4.50031 10.5V16.5L2.69281 18.492C1.81831 19.4565 2.50231 21 3.80281 21H9.40232C9.66563 21.456 10.0443 21.8347 10.5004 22.098C10.9564 22.3613 11.4737 22.4999 12.0003 22.4999C12.5269 22.4999 13.0442 22.3613 13.5002 22.098C13.9563 21.8347 14.335 21.456 14.5983 21H20.1978C21.4983 21 22.1823 19.455 21.3078 18.492L19.5003 16.5V10.5C19.5007 8.77102 18.9036 7.09502 17.8103 5.75565C16.7169 4.41627 15.1944 3.4958 13.5003 3.15V3C13.5003 2.60218 13.3423 2.22064 13.061 1.93934C12.7797 1.65804 12.3981 1.5 12.0003 1.5ZM6.75031 17.37L6.16531 18.012L5.49631 18.75H18.5043L17.8338 18.012L17.2503 17.3685V10.5C17.2503 9.81056 17.1145 9.12787 16.8507 8.49091C16.5868 7.85395 16.2001 7.2752 15.7126 6.78769C15.2251 6.30018 14.6464 5.91347 14.0094 5.64963C13.3724 5.3858 12.6898 5.25 12.0003 5.25C11.3109 5.25 10.6282 5.3858 9.99123 5.64963C9.35427 5.91347 8.77551 6.30018 8.288 6.78769C7.8005 7.2752 7.41378 7.85395 7.14995 8.49091C6.88611 9.12787 6.75031 9.81056 6.75031 10.5V17.37Z" fill="#64748B"/>
</svg>
